<?xml version="1.0" encoding="utf-8"?>
<!-- Generator: Adobe Illustrator 16.0.2, SVG Export Plug-In . SVG Version: 6.00 Build 0)  -->
<!DOCTYPE svg PUBLIC "-//W3C//DTD SVG 1.1//EN" "http://www.w3.org/Graphics/SVG/1.1/DTD/svg11.dtd">
<svg version="1.1" id="Layer_1" xmlns="http://www.w3.org/2000/svg" xmlns:xlink="http://www.w3.org/1999/xlink" x="0px" y="0px"
	 width="201.925px" height="62.016px" viewBox="0 0 201.925 62.016" enable-background="new 0 0 201.925 62.016"
	 xml:space="preserve">
<path fill="#FFFFFF" d="M3.003,61.534l2.348-8.582h8.934l2.492,8.582h3.221l-8.744-28.338H8.207L0,61.534H3.003z M8.512,41.585
	c0.497-1.791,0.88-3.594,1.152-5.412c0.33,1.534,0.836,3.493,1.516,5.876l2.229,7.849H6.166L8.512,41.585z"/>
<path fill="#FFFFFF" d="M24.382,61.534V48.949h3.279c0.728,0,1.255,0.045,1.575,0.136c0.436,0.141,0.867,0.394,1.289,0.753
	c0.424,0.361,0.902,0.993,1.436,1.895c0.536,0.903,1.216,2.205,2.041,3.906l2.828,5.895h3.555l-3.716-7.713
	c-0.74-1.507-1.521-2.763-2.348-3.769c-0.387-0.464-0.957-0.934-1.704-1.41c2.05-0.374,3.565-1.25,4.547-2.629
	c0.981-1.379,1.472-3.073,1.472-5.084c0-1.559-0.297-2.983-0.889-4.271c-0.593-1.289-1.385-2.187-2.377-2.696
	c-0.99-0.51-2.439-0.765-4.343-0.765h-9.474v28.338H24.382z M24.382,36.328h6.762c1.583,0,2.743,0.431,3.476,1.295
	c0.733,0.862,1.1,1.965,1.1,3.305c0,0.915-0.19,1.762-0.568,2.542c-0.378,0.78-0.932,1.346-1.661,1.702
	c-0.729,0.353-1.74,0.531-3.032,0.531h-6.078V36.328z"/>
<path fill="#FFFFFF" d="M55.337,56.991c-1.099,1.211-2.44,1.817-4.022,1.817c-1.303,0-2.513-0.443-3.63-1.334
	c-1.117-0.889-1.941-2.232-2.47-4.03c-0.529-1.798-0.794-3.901-0.794-6.311c0-1.868,0.223-3.681,0.671-5.441
	c0.447-1.759,1.222-3.162,2.324-4.204c1.102-1.045,2.475-1.566,4.117-1.566c1.429,0,2.614,0.47,3.557,1.412
	c0.941,0.94,1.661,2.441,2.156,4.503l2.785-0.87c-0.574-2.617-1.59-4.645-3.046-6.088c-1.458-1.444-3.255-2.165-5.394-2.165
	c-1.885,0-3.611,0.569-5.181,1.711c-1.569,1.139-2.778,2.808-3.628,5.006c-0.852,2.197-1.277,4.771-1.277,7.721
	c0,2.707,0.377,5.238,1.13,7.596c0.754,2.359,1.851,4.16,3.294,5.403c1.443,1.244,3.315,1.865,5.617,1.865
	c2.227,0,4.109-0.808,5.65-2.425c1.54-1.617,2.606-3.965,3.199-7.046l-2.828-0.948C57.178,53.982,56.434,55.78,55.337,56.991z"/>
<path fill="#FFFFFF" d="M66.047,61.534V48.178h11.105v13.356h2.829V10.243l-2.829,3.061v31.529H66.047l0.022-21.305l-2.851,2.783
	v35.223H66.047z"/>
<path fill="#FFFFFF" d="M86.856,61.534V48.178h11.106v13.356h2.827V26.311l-2.84-2.717l0.013,21.238H86.856V13.303l-2.828-3.061
	v51.291H86.856z"/>
<path fill="#FFFFFF" d="M105.116,54.807c0.815,2.229,2.016,3.988,3.6,5.277c1.583,1.288,3.381,1.932,5.393,1.932
	c1.855,0,3.585-0.582,5.188-1.748c1.603-1.167,2.842-2.885,3.718-5.152c0.875-2.267,1.31-4.838,1.31-7.712
	c0-2.835-0.416-5.371-1.246-7.606c-0.831-2.236-2.039-3.979-3.623-5.229c-1.583-1.25-3.362-1.876-5.334-1.876
	c-3.012,0-5.47,1.331-7.374,3.993c-1.905,2.66-2.858,6.341-2.858,11.046C103.89,50.22,104.3,52.578,105.116,54.807z M108.972,38.656
	c1.441-1.822,3.165-2.735,5.166-2.735c1.409,0,2.68,0.473,3.811,1.421c1.132,0.947,1.991,2.28,2.58,4
	c0.588,1.72,0.883,3.734,0.883,6.04c0,3.647-0.688,6.463-2.063,8.448c-1.375,1.985-3.125,2.976-5.255,2.976
	c-2.089,0-3.824-0.982-5.21-2.948c-1.383-1.965-2.076-4.655-2.076-8.07C106.807,43.525,107.529,40.481,108.972,38.656z"/>
<path fill="#FFFFFF" d="M140.458,61.534V58.19h-10.524V33.196h-2.827v28.338H140.458z"/>
<path fill="#FFFFFF" d="M150.789,61.534c1.292,0,2.436-0.162,3.433-0.484c0.995-0.321,1.846-0.795,2.55-1.42
	c0.704-0.626,1.352-1.482,1.945-2.572c0.593-1.088,1.079-2.465,1.457-4.127c0.38-1.663,0.57-3.569,0.57-5.721
	c0-2.527-0.28-4.771-0.839-6.738c-0.559-1.965-1.401-3.579-2.528-4.841c-0.866-0.979-1.911-1.656-3.134-2.03
	c-0.875-0.271-2.144-0.407-3.804-0.407h-7.36v28.338H150.789z M145.905,36.54h4.49c1.681,0,2.9,0.193,3.658,0.581
	c1.049,0.54,1.941,1.608,2.674,3.198c0.733,1.591,1.101,3.87,1.101,6.833c0,2.14-0.186,3.96-0.562,5.461
	c-0.374,1.502-0.896,2.698-1.566,3.586c-0.476,0.631-1.114,1.121-1.916,1.468c-0.801,0.349-1.907,0.523-3.315,0.523h-4.563V36.54z"
	/>
<path fill="#FFFFFF" d="M179.892,61.534V58.19h-13.118v-9.645h11.819V45.22h-11.819v-8.68h12.621v-3.344h-15.448v28.338H179.892z"/>
<path fill="#FFFFFF" d="M185.923,61.534V48.949h3.279c0.729,0,1.254,0.045,1.574,0.136c0.438,0.141,0.867,0.394,1.289,0.753
	c0.424,0.361,0.901,0.993,1.437,1.895c0.534,0.903,1.214,2.205,2.042,3.906l2.827,5.895h3.555l-3.715-7.713
	c-0.738-1.507-1.521-2.763-2.347-3.769c-0.389-0.464-0.957-0.934-1.705-1.41c2.049-0.374,3.566-1.25,4.547-2.629
	c0.982-1.379,1.473-3.073,1.473-5.084c0-1.559-0.298-2.983-0.889-4.271c-0.593-1.289-1.385-2.187-2.376-2.696
	c-0.992-0.51-2.438-0.765-4.343-0.765h-9.474v28.338H185.923z M185.923,36.328h6.763c1.584,0,2.743,0.431,3.475,1.295
	c0.735,0.862,1.101,1.965,1.101,3.305c0,0.915-0.189,1.762-0.568,2.542c-0.378,0.78-0.932,1.346-1.661,1.702
	c-0.729,0.353-1.739,0.531-3.033,0.531h-6.077V36.328z"/>
<path fill-rule="evenodd" clip-rule="evenodd" fill="#FFFFFF" d="M108.64,29.874L82.251,3.301L55.863,29.874l-1.53-1.767L82.251,0
	l27.919,28.107L108.64,29.874z"/>
</svg>
